<?xml version="1.0" standalone="no"?>
<!DOCTYPE svg PUBLIC "-//W3C//DTD SVG 20010904//EN"
 "http://www.w3.org/TR/2001/REC-SVG-20010904/DTD/svg10.dtd">
<svg version="1.0" xmlns="http://www.w3.org/2000/svg"
 width="512.000000pt" height="512.000000pt" viewBox="0 0 512.000000 512.000000"
 preserveAspectRatio="xMidYMid meet">
<metadata>
Created by potrace 1.14, written by Peter Selinger 2001-2017
</metadata>
<g transform="translate(0.000000,512.000000) scale(0.100000,-0.100000)"
fill="#000000" stroke="none">
<path d="M377 5105 c-173 -47 -316 -193 -362 -366 -22 -81 -22 -4277 0 -4358
46 -176 190 -320 366 -366 81 -22 4277 -22 4358 0 176 46 320 190 366 366 22
81 22 4277 0 4358 -46 176 -190 320 -366 366 -77 21 -4287 21 -4362 0z m866
-1949 c256 -49 387 -239 319 -463 -47 -154 -161 -257 -316 -283 -116 -21 -241
16 -223 64 8 19 8 19 110 41 125 27 179 88 198 223 17 121 -19 210 -101 252
-55 28 -159 41 -245 30 -85 -11 -84 -11 -207 -67 -133 -61 -161 -54 -110 28
17 26 52 60 83 80 148 96 315 129 492 95z m2875 -19 c30 -31 52 -89 52 -135 0
-54 -22 -111 -80 -212 -43 -76 -79 -175 -66 -187 2 -2 26 18 53 45 58 58 120
82 207 81 74 -1 116 -15 155 -52 63 -59 66 -162 11 -380 -23 -91 -30 -131 -22
-139 21 -21 66 5 158 94 106 102 120 104 109 14 -7 -57 -33 -111 -75 -159 -41
-47 -218 -137 -269 -137 -46 0 -88 30 -107 76 -21 49 -17 211 6 318 34 153 23
206 -43 206 -45 0 -92 -35 -136 -101 -70 -105 -84 -156 -82 -294 1 -101 -2
-125 -17 -150 -21 -34 -101 -78 -134 -73 -35 5 -65 59 -73 133 l-7 66 -54 -51
c-69 -65 -187 -122 -264 -128 -52 -4 -60 -1 -90 25 -21 19 -39 51 -55 96 l-23
68 -21 -34 c-26 -43 -98 -110 -141 -132 -18 -10 -59 -19 -90 -22 -80 -8 -114
12 -147 84 -24 52 -25 63 -20 157 5 87 25 176 60 256 3 8 -10 10 -77 10 l-64
0 -22 -95 c-18 -78 -21 -119 -18 -233 3 -154 0 -164 -59 -189 -35 -14 -91 -17
-110 -5 -20 13 -33 61 -33 123 0 32 -2 59 -4 59 -3 0 -27 -22 -55 -49 -64 -63
-165 -113 -237 -119 -50 -4 -56 -2 -83 27 -16 17 -33 46 -36 64 -4 17 -9 36
-12 40 -3 5 -27 -15 -54 -43 -69 -72 -123 -94 -229 -95 -94 0 -139 16 -189 66
-51 51 -66 95 -64 194 4 271 188 489 422 503 47 3 93 0 115 -8 34 -11 39 -10
57 9 11 12 32 21 48 21 36 0 101 -47 125 -91 l18 -35 -38 -74 -39 -75 0 -152
c0 -103 4 -156 12 -164 22 -22 65 2 157 91 84 81 94 95 105 142 6 29 22 79 36
111 l23 59 -34 45 c-43 56 -46 108 -10 150 20 24 32 28 73 28 65 0 96 -24 135
-102 l32 -65 55 4 c32 2 83 16 119 33 61 27 63 28 83 9 28 -25 59 -87 59 -118
0 -14 -18 -90 -39 -168 -50 -178 -56 -214 -41 -223 24 -15 64 9 145 86 l84 80
6 67 c4 37 13 96 20 132 8 35 11 68 9 72 -3 4 -23 8 -45 8 -37 0 -39 2 -39 30
0 50 26 90 58 90 38 0 72 11 72 22 0 25 66 165 93 194 51 59 113 40 141 -42
16 -47 16 -47 -14 -99 -17 -29 -30 -55 -30 -58 0 -2 38 -8 85 -12 95 -8 98
-11 71 -85 l-13 -35 -89 -5 -89 -5 -12 -70 c-20 -115 -27 -285 -14 -332 10
-37 15 -43 39 -43 39 0 141 63 202 125 49 50 52 55 61 126 15 121 39 227 79
349 45 138 141 354 171 387 28 29 59 29 87 0z m-3118 -288 c0 -53 -14 -149
-40 -282 -29 -150 -42 -246 -50 -373 -5 -95 -13 -179 -16 -188 -10 -26 -63
-48 -129 -54 -86 -6 -90 0 -89 152 1 210 87 542 184 711 41 72 108 132 133
118 4 -2 7 -40 7 -84z"/>
<path d="M2049 2611 c-60 -23 -128 -71 -169 -117 -105 -120 -121 -331 -29
-363 62 -21 140 13 189 84 36 52 46 94 60 250 6 66 11 129 13 139 3 26 -11 28
-64 7z"/>
</g>
</svg>
